/vscmnt/brussel_pixiu_data/_data_brussel/112/vsc11236/PredSimResults/SUBJ11opt3D/weighted-LRposFixed/expIG/worker_01.mot
version=1
nRows=4
nColumns=50
inDegrees=yes
endheader
                time	         pelvis_tilt	         pelvis_list	     pelvis_rotation	           pelvis_tx	           pelvis_ty	           pelvis_tz	       hip_flexion_r	     hip_adduction_r	      hip_rotation_r	        knee_angle_r	       ankle_angle_r	         mtp_angle_r	       hip_flexion_l	     hip_adduction_l	      hip_rotation_l	        knee_angle_l	       ankle_angle_l	         mtp_angle_l	    lumbar_extension	      lumbar_bending	     lumbar_rotation	 ercspn_r/activation	 intobl_r/activation	 extobl_r/activation	    abd_r/activation	    add_r/activation	hamstrings_r/activation	bifemsh_r/activation	glut_max_r/activation	iliopsoas_r/activation	rect_fem_r/activation	  vasti_r/activation	gastroc_r/activation	 soleus_r/activation	tib_ant_r/activation	 ercspn_l/activation	 intobl_l/activation	 extobl_l/activation	    abd_l/activation	    add_l/activation	hamstrings_l/activation	bifemsh_l/activation	glut_max_l/activation	iliopsoas_l/activation	rect_fem_l/activation	  vasti_l/activation	gastroc_l/activation	 soleus_l/activation	tib_ant_l/activation	
          1.34087244	         -3.05046966	         -1.16412271	          5.45711049	          1.47495968	          0.94096220	         -0.00535765	         31.33767271	         -1.82990656	         -4.51738161	         -9.42038894	          1.90680739	          0.23141775	        -14.00174894	         -3.12890494	         -2.05353406	        -11.26087895	         12.67816382	         28.82046018	        -14.48678031	         -2.04166602	         -3.22567630	          0.03212422	          0.25426426	          0.06670305	          0.00999999	          0.18785013	          0.04503086	          0.16083923	          0.04247097	          0.10279895	          0.04161573	          0.01530752	          0.00999999	          0.00999999	          0.41235175	          0.01000000	          0.00999999	          0.01000000	          0.04103690	          0.01000000	          0.01653097	          0.27016042	          0.02398551	          0.15410553	          0.01000001	          0.01000000	          0.16417473	          0.32098772	          0.01496899	
          1.35428116	         -3.16770099	         -1.21371847	          5.61006065	          1.49341506	          0.93877380	         -0.00431586	         31.19909250	         -1.67985457	         -4.68093072	        -10.64765702	          1.35659826	          0.23976936	        -14.62706825	         -3.37863415	         -2.33375066	        -11.87486109	         11.87582603	         30.62076587	        -14.06671433	         -1.54291611	         -3.42341010	          0.02625646	          0.20782075	          0.05451917	          0.00999999	          0.21080678	          0.03766205	          0.13146059	          0.11490807	          0.08402185	          0.03401427	          0.01251147	          0.01379933	          0.01223529	          0.43697860	          0.02046805	          0.01000000	          0.01000000	          0.03354116	          0.05461322	          0.02173041	          0.22081336	          0.01960436	          0.16003450	          0.01000001	          0.01000000	          0.13439436	          0.30109199	          0.01223478	
          1.36768989	         -3.26236432	         -1.27423237	          5.74335274	          1.51231443	          0.93686114	         -0.00322409	         30.95849362	         -1.55519261	         -4.77706655	        -12.02119720	          0.88471543	          0.21108240	        -15.13488365	         -3.65143369	         -2.62720250	        -12.75903324	         10.93139090	         32.48866618	        -13.60841462	         -1.02423778	         -3.61646680	          0.02146063	          0.16986053	          0.04456079	          0.06790642	          0.22298076	          0.04489153	          0.10744821	          0.12588479	          0.06867455	          0.02780128	          0.01022614	          0.01127877	          0.01000041	          0.50580496	          0.01672940	          0.00999999	          0.01000000	          0.02741458	          0.04463766	          0.01776118	          0.18047995	          0.01602346	          0.17479698	          0.01000001	          0.01000000	          0.10984609	          0.27512367	          0.00999999	
          1.38109861	         -3.33756406	         -1.32261938	          5.84618593	          1.53131390	          0.93544114	         -0.00205102	         30.72849242	         -1.45274903	         -4.94684569	        -13.41255505	          0.21955922	          0.18290769	        -15.41397998	         -3.92428344	         -2.93096040	        -14.05703489	          9.81063517	         34.42904354	        -13.15423190	         -0.51772963	         -3.79608995	          0.03153863	          0.13883407	          0.03642138	          0.10437134	          0.27185406	          0.04127745	          0.08782189	          0.13530338	          0.05613056	          0.02272314	          0.02023994	          0.00999999	          0.00999999	          0.56079003	          0.04985948	          0.00999999	          0.01000000	          0.02240708	          0.04320959	          0.02082298	          0.14751377	          0.01309664	          0.14824274	          0.01000001	          0.01000000	          0.08978177	          0.24731904	          0.00999999	
